<?xml version="1.0" encoding="UTF-8" standalone="no"?>
<svg
   width="16"
   height="16"
   version="1.1"
   id="svg1"
   sodipodi:docname="Untitled(2).svg"
   xml:space="preserve"
   inkscape:version="1.4.4 (dcaf3e7, 2026-05-05)"
   xmlns:inkscape="http://www.inkscape.org/namespaces/inkscape"
   xmlns:sodipodi="http://sodipodi.sourceforge.net/DTD/sodipodi-0.dtd"
   xmlns="http://www.w3.org/2000/svg"
   xmlns:svg="http://www.w3.org/2000/svg"><defs
     id="defs1" /><sodipodi:namedview
     id="namedview1"
     pagecolor="#ffffff"
     bordercolor="#000000"
     borderopacity="0.25"
     inkscape:showpageshadow="2"
     inkscape:pageopacity="0.0"
     inkscape:pagecheckerboard="0"
     inkscape:deskcolor="#d1d1d1"
     inkscape:zoom="75.9375"
     inkscape:cx="8"
     inkscape:cy="8"
     inkscape:window-width="2560"
     inkscape:window-height="1417"
     inkscape:window-x="-8"
     inkscape:window-y="363"
     inkscape:window-maximized="1"
     inkscape:current-layer="svg1" /><path
     id="path1"
     d="M 14.564453 2 L 12.320312 2.328125 L 13.138672 4.2285156 L 14.853516 3.9785156 L 14.564453 2 z M 10.341797 2.6152344 L 8.3632812 2.9042969 L 9.1816406 4.8066406 L 11.160156 4.5175781 L 10.341797 2.6152344 z M 6.3828125 3.1933594 L 4.4042969 3.4824219 L 5.2226562 5.3847656 L 7.2011719 5.0957031 L 6.3828125 3.1933594 z M 2.4257812 3.7714844 L 0.7109375 4.0214844 L 1 6 L 3.2441406 5.671875 L 2.4257812 3.7714844 z M 1 7 L 1 13 A 2 2 0 0 0 3 15 L 5.5292969 15 C 5.3597035 14.555533 5.2675781 14.071871 5.2675781 13.566406 L 5.2675781 13.257812 C 5.2675781 11.041812 7.0515781 9.2578125 9.2675781 9.2578125 L 13.541016 9.2578125 C 14.056482 9.2578125 14.548299 9.3532558 15 9.5292969 L 15 7 L 1 7 z "
     style="fill:#fc7f7f;fill-opacity:1" /><path
     fill="#8eef97"
     d="m 9.2674897,10.655144 a 2.5975309,2.5975309 0 0 0 -2.5975309,2.597531 2.5975309,2.5975309 0 0 0 2.5975309,2.597531 h 3.8962963 a 2.5975309,2.5975309 0 0 0 2.597531,-2.597531 2.5975309,2.5975309 0 0 0 -2.597531,-2.597531 z m 0,1.298766 h 1.6500813 a 2.5975309,2.5975309 0 0 0 -0.351329,1.298765 2.5975309,2.5975309 0 0 0 0.351329,1.298766 H 9.2674897 A 1.2987654,1.2987654 0 0 1 7.9687242,13.252675 1.2987654,1.2987654 0 0 1 9.2674897,11.95391 Z"
     id="path1-8"
     style="stroke-width:0.649383;fill:#fc7f7f;fill-opacity:1" /></svg>
